<?xml version="1.0" encoding="utf-8"?>
<svg xmlns="http://www.w3.org/2000/svg" viewBox="299.2794 180.4179 46.2454 47.9735" width="46.2454px" height="47.9735px"><defs><filter id="editing-jagged" x="-100%" y="-100%" width="300%" height="300%"><feTurbulence result="turb" baseFrequency="0.1" numOctaves="1" seed="1"/><feDisplacementMap in="SourceGraphic" in2="turb" scale="10" result="displacement-map-0"/></filter></defs><g filter="url(#editing-jagged)" transform="matrix(1.362760066986084, 0, 0, 0.6077730059623718, -14.451100564764438, 157.05400319477917)" id="object-0" style=""><g transform="translate(228.01500463485718, 96.0049991607666)"><path d="M 6.96 21.37 L 2.72 -2.883 L 2.202 -54.374 L 33.999 -57.549 C 40.738 -58.076 29.395 -43.839 29.373 -37.012 L 34.278 -39.572 C 34.256 -32.747 32.305 -18.722 25.566 -18.194 L 11.339 -14.84 L 6.96 21.37 Z M 9.738 -40.281 L 9.7 -29.108 L 21.635 -17.521 L 33.563 -40.993 C 35.15 -41.117 32.499 -28.442 33.197 -29.205 C 33.899 -29.962 31.437 -28.45 31.444 -30.053 L 29.579 -30.351 C 29.585 -31.961 32.058 -35.152 31.358 -35.799 C 30.667 -36.452 16.027 -42.112 14.441 -41.988 L 9.738 -40.281 Z" style="fill-rule: nonzero; stroke-width: 0px; paint-order: fill; stroke: rgb(16, 16, 16); fill: rgb(16, 233, 250); transform-origin: 20.671px -20.381px;"/></g></g></svg>